<?xml version="1.0" encoding="utf-8"?>
<!-- Generator: Adobe Illustrator 26.2.1, SVG Export Plug-In . SVG Version: 6.00 Build 0)  -->
<svg version="1.1" id="Layer_1" xmlns="http://www.w3.org/2000/svg" xmlns:xlink="http://www.w3.org/1999/xlink" x="0px" y="0px"
	 viewBox="0 0 257.2 65.4" style="enable-background:new 0 0 257.2 65.4;" xml:space="preserve">
<style type="text/css">
	.st0{fill:#46525A;}
</style>
<path class="st0" d="M88.8,27.6v11.3c0,2.4-1.5,4.9-6,4.9s-6-2.5-6-4.9V27.6h3.6v11c0,1.3,0.6,2,2.4,2s2.4-0.7,2.4-2v-11H88.8z
	 M79,26.1v-2.6h2.7v2.6H79z M83.8,26.1v-2.6h2.8v2.6H83.8z"/>
<path class="st0" d="M92.1,43.6V27.1l3.5-0.5v16.9H92.1z"/>
<path class="st0" d="M98.9,43.6V27.1l3.5-0.5v16.9H98.9z M105.8,31.9h3.7l-3.1,5.8l3.2,5.9h-3.7l-3.1-5.9L105.8,31.9z"/>
<path class="st0" d="M114.5,38.9v0.3c0,1.3,0.5,1.7,2.1,1.7c1.2,0,2.4-0.2,3.6-0.5l0.5,2.6c-1.4,0.5-2.9,0.7-4.4,0.7
	c-3.8,0-5.2-1.9-5.2-4.8v-2.7c0-2.5,1.1-4.7,5-4.7s4.7,2.3,4.7,4.8v2.5H114.5z M117.5,35.8c0-0.8-0.2-1.5-1.4-1.5s-1.6,0.7-1.6,1.5
	v0.5h3L117.5,35.8z"/>
<path class="st0" d="M133.5,43.8c-1.8,0-3.5-0.3-5.2-1L129,40c1.5,0.5,3,0.7,4.6,0.8c1.9,0,2.2-0.4,2.2-1.7s-0.1-1.6-2.7-2.2
	c-3.9-0.8-4.4-1.6-4.4-5.1c0-3.2,1.1-4.5,5.5-4.5c1.6,0,3.3,0.2,4.9,0.5l-0.4,3c-1.5-0.3-2.9-0.4-4.4-0.5c-1.6,0-2,0.3-2,1.5
	c0,1.5,0.1,1.6,2.6,2.2c4.3,1,4.5,1.9,4.5,5S138.4,43.8,133.5,43.8z"/>
<path class="st0" d="M148.4,43.6l-0.2-0.7c-1,0.6-2.2,0.9-3.3,1c-2.2,0-3-1.6-3-3.5c0-2.3,1.1-3.3,3.5-3.3h2.5v-0.9
	c0-1.2-0.2-1.6-2.1-1.6c-1.1,0-2.1,0.1-3.2,0.3l-0.4-2.6c1.4-0.4,2.8-0.6,4.2-0.6c4.1,0,4.9,1.2,4.9,4.5v7.5L148.4,43.6z
	 M147.8,39.4h-1.7c-0.7,0-1,0.2-1,0.8s0.3,0.9,0.9,0.9c0.6,0,1.2-0.1,1.8-0.4L147.8,39.4z"/>
<path class="st0" d="M156.2,48.3l1.4-4.7h-1.1l-3.6-11.7h3.5l2.4,8.3l2.4-8.3h3.5L161,43.6l-1.5,4.7H156.2z"/>
<path class="st0" d="M166.5,43.6V31.9h3.5v11.7H166.5z"/>
<path class="st0" d="M176.9,43.8c-1.4,0-2.9-0.3-4.2-0.7l0.6-2.6c1.1,0.3,2.3,0.5,3.5,0.5c1,0,1.2-0.3,1.2-1s0-0.8-1.9-1.3
	c-2.8-0.7-3.1-1.5-3.1-3.7c0-2.5,1-3.5,4.5-3.5c1.2,0,2.4,0.1,3.6,0.4l-0.3,2.7c-1.1-0.2-2.1-0.3-3.2-0.3c-1,0-1.2,0.3-1.2,0.8
	c0,0.7,0.1,0.8,1.5,1.1c3.3,0.7,3.6,1.5,3.6,3.8S180.3,43.8,176.9,43.8z"/>
<path class="st0" d="M183.9,43.6V31.9h3.5v11.7H183.9z"/>
<path class="st0" d="M39.7,60.6l0.2-0.1c1.6-0.9,3-2.3,3.9-3.9c0.3-0.8,0.8-1.5,1.4-2c0.2-0.1,0.4-0.2,0.6-0.2l0.4-0.1
	c2.2-0.8,4.2-4,4.2-6.4c0-2.2-1.5-3-2.6-3.6c-0.5-0.2-1-0.6-1.4-1c-0.2-0.3-0.4-0.6-0.7-0.9c-0.5-0.8-1.1-1.4-1.8-1.9
	C43,39.9,42,39.7,41,39.7l-0.7,0c-0.5,0-1-0.1-1.4-0.2c-1.2-0.2-2.4-0.3-3.6-0.2c-0.6,0.1-0.7,0-1.2-0.5l-0.3-0.3
	c-0.3-0.2-0.5-0.4-0.8-0.6c-0.2-0.1-0.5-0.3-0.7-0.4l0,0c0.5-0.5,0.4-1.4-0.1-1.9c-0.2-0.1-0.4-0.2-0.6-0.3
	c-0.6-0.1-1.2-0.1-1.7,0.2l-0.3,0.1c-0.1,0-0.1,0-0.6-0.5L28.9,35c0.4-0.3,1.2-1,1.9-0.8c0.2,0.1,0.4,0.1,0.6,0.2
	c0.1,0.1,0.3,0.2,0.5,0.2c0.6,0.3,1.4,0.3,2,0c0.4-0.2,0.7-0.5,0.9-0.9c0.1-0.1,0.1-0.2,0.2-0.3c0.3-0.3,0.6-0.5,0.9-0.7
	c0.5-0.3,1-0.7,1.4-1.1c0.7-0.8,1.5-1.6,2.4-2.1l0.4-0.2c0.7-0.5,1.5-0.8,2.3-1.1c0.4-0.1,0.8-0.1,1.2,0h0.2
	c0.4,0.1,1.4,0.4,1.9-0.4c0.5-0.7,0.5-1.7,0-2.4c-0.5-0.6-1.1-1.2-1.7-1.8c-0.4-0.4-0.8-0.8-1.2-1.2c-0.6-0.6-1.3-1.1-2.2-1.3
	c-0.6-0.3-1.4-0.3-2-0.1c-0.2,0.1-0.4,0.3-0.6,0.5l-0.1,0.1c-0.4,0.2-0.8,0.3-1.3,0.3c-0.5,0-1,0.1-1.4,0.2c-0.5,0.2-1.1,0.2-1.7,0
	c-0.4-0.3-0.7-0.7-0.8-1.2c0-0.1,0-0.2,0-0.3l0.2-0.1c0.4-0.1,0.8-0.3,1.4-0.4l0.6-0.1l0.2-0.8c0.1-0.6,0.3-1.2,0.5-1.9
	c0.1,0.1,0.2,0.2,0.3,0.3c0.1,0.1,0.1,0.2,0.2,0.4c0.1,0.6,0.5,1.1,1.1,1.3l0.3,0.1c0.7,0.4,1.5,0.6,2.3,0.7c0.7,0.1,1.5-0.2,2-0.7
	c0.3-0.5,0.4-1.1,0.2-1.6c-0.4-0.8-1-1.4-1.8-1.7c-0.2-0.1-0.5-0.3-0.7-0.4c-0.3-0.3-0.5-0.6-0.8-0.9l0.8-0.1
	c1.7-0.3,2.9-0.6,3.4-1.2c0.3-0.4,0.6-0.9,0.8-1.4c0.1-0.2,0.2-0.4,0.2-0.5c0.2,0,0.4,0,0.6,0.1c1.5,0.5,3.1,2.1,4.3,3.2
	c1.8,1.7,3.3,3.7,4.6,5.8l1.5-1c-1.4-2.3-3.1-4.3-5-6.2c-1.4-1.5-3.1-2.7-4.9-3.6c-2-0.7-2.6,0.2-3.1,1.3c-0.1,0.3-0.3,0.7-0.5,0.9
	c-0.8,0.3-1.5,0.5-2.3,0.6c-1.4,0.3-2.1,0.4-2.4,0.9l-0.2,0.4l0.1,0.4c0.1,0.4,0.3,0.8,0.5,1.1c0.3,0.5,0.7,1,1.2,1.4
	c0.3,0.2,0.6,0.4,0.9,0.6c0.3,0.2,0.6,0.3,0.8,0.6h-0.3c-0.6-0.1-1.1-0.2-1.7-0.5l-0.3-0.1l-0.1-0.2c-0.1-0.3-0.2-0.6-0.4-0.9
	c-0.4-0.5-0.8-0.8-1.3-1.1l-0.2-0.1c-0.2-0.2-0.5-0.3-0.7-0.2c-0.4,0-0.8,0.3-1,0.7c-0.4,0.8-0.7,1.7-0.9,2.6
	c-0.3,0.1-0.7,0.2-1,0.3c-0.4,0.1-0.7,0.3-0.9,0.5c-0.5,0.5-0.6,1.2-0.5,1.9c0.2,1.1,0.9,2,1.9,2.6c1,0.4,2,0.4,3,0.1
	c0.3-0.1,0.7-0.1,1-0.1c0.9,0,1.7-0.3,2.4-0.8l0.2-0.2l0.1-0.1c0,0,0.2,0,0.5,0.1c0.5,0.2,1,0.4,1.5,0.8c0.4,0.5,0.9,0.9,1.3,1.3
	c0.5,0.5,1,1,1.5,1.5l0,0l-0.3-0.1c-0.6-0.1-1.2-0.1-1.8,0c-1.1,0.3-2.1,0.7-3,1.3L38.6,28c-1.1,0.6-2.1,1.5-2.9,2.5
	c-0.3,0.3-0.6,0.6-0.9,0.8c-0.5,0.3-0.9,0.6-1.3,1c-0.1,0.1-0.2,0.3-0.3,0.5c-0.1,0.1-0.2,0.2-0.3,0.3c-0.2,0-0.3,0-0.5-0.1
	l-0.4-0.2c-0.3-0.2-0.6-0.3-0.9-0.4c-1.4-0.2-2.9,0.3-3.8,1.4c-0.4,0.3-0.6,0.9-0.5,1.4c0.1,0.3,0.2,0.6,0.5,0.8
	c0.1,0.1,0.2,0.2,0.3,0.3c0.5,0.9,1.6,1.3,2.6,1l0.2-0.1c-0.2,1.1,0.9,1.8,1.7,2.2c0.2,0.1,0.3,0.2,0.5,0.3l0.2,0.2
	c0.6,0.8,1.7,1.2,2.7,1c1-0.1,2.1,0,3.1,0.2c0.5,0.1,1,0.2,1.5,0.2c0.3,0,0.5,0,0.8,0c0.7,0,1.3,0.1,1.9,0.4c0.5,0.4,1,0.9,1.3,1.5
	c0.2,0.3,0.5,0.7,0.8,1c0.6,0.6,1.2,1.1,1.9,1.4c1.1,0.6,1.6,0.9,1.7,2c-0.2,2-1.3,3.7-3,4.7l-0.3,0.1c-0.3,0.1-0.6,0.2-0.8,0.3
	c-1.1,0.7-1.9,1.8-2.3,3c-0.8,1.3-1.9,2.4-3.2,3.2c-0.4,0.3-0.8,0.6-1.2,0.9c-0.8,0.6-1.1,1.6-0.9,2.5l0.2,1l1-0.3
	C48.7,60.3,56.9,51.5,59,40.5l-1.8-0.3C55.4,49.6,48.7,57.4,39.7,60.6z"/>
<path class="st0" d="M35.4,51c-0.1-0.4-0.2-0.8-0.3-1.3c-0.1-0.4-0.2-0.7-0.4-1.1c-0.2-0.3-0.4-0.7-0.6-1c-0.5-0.7-0.8-1.2-0.6-1.7
	c0.1-0.2,0.2-0.4,0.3-0.6c0.1-0.2,0.3-0.5,0.4-0.8c0-0.1,0.1-0.2,0.2-0.3c0.3-0.4,1.1-1.8-0.1-2.6c-0.3-0.2-0.6-0.3-1-0.4H33l-2-2
	c-0.7-0.5-1.5-0.7-2.4-0.6c-0.2,0-0.4,0-0.6,0c-0.6,0-1.2-0.3-1.7-0.7c-0.1-0.2-0.3-0.4-0.4-0.6c-0.2-0.5-0.6-1-1-1.4
	c-0.3-0.2-0.6-0.4-0.9-0.5c-0.2-0.1-0.5-0.2-0.6-0.4c-1.1-0.9-2-2-2.7-3.3c-0.8-1.5-2-2.6-3.6-3.2c-2.6-1.2-5.3-2.2-8.1-3
	c-0.2,0-0.3-0.1-0.5-0.2c-1.1-0.3-2.8-0.9-3.7,0.4c-0.9,1.7-1.4,3.5-1.5,5.4c-0.3,2-0.3,4.1-0.2,6.1l1.8-0.1c-0.1-1.9,0-3.8,0.2-5.8
	C5.1,30,5.5,28.4,6.2,27c0.2-0.1,1.3,0.2,1.7,0.3l0.6,0.2c2.7,0.7,5.3,1.6,7.9,2.8c1.2,0.4,2.1,1.3,2.7,2.4c0.8,1.5,1.9,2.8,3.1,3.8
	c0.3,0.3,0.7,0.5,1.1,0.7c0.2,0.1,0.4,0.2,0.5,0.3c0.2,0.2,0.4,0.4,0.5,0.7c0.2,0.3,0.4,0.6,0.6,0.8c0.7,0.8,1.7,1.2,2.8,1.3
	c0.3,0,0.5,0,0.8,0c0.4,0,0.7,0,1.1,0.1l2,2.1c0.3,0.3,0.8,0.5,1.2,0.5l0,0c0,0.1-0.1,0.1-0.1,0.2c-0.1,0.2-0.2,0.4-0.3,0.6
	c-0.1,0.2-0.2,0.4-0.3,0.5c-0.2,0.3-0.3,0.6-0.5,0.9c-0.3,1.2,0,2.4,0.8,3.3c0.2,0.3,0.3,0.5,0.5,0.8c0.1,0.3,0.2,0.5,0.3,0.8
	c0.1,0.4,0.2,0.8,0.3,1.2c0.1,0.8,0.4,1.6,0.7,2.3c0.2,0.4,0.3,0.8,0.1,1.3c-0.1,0.4-0.2,0.9-0.4,1.3c-0.3,1-0.5,2-0.7,3
	c-0.1,0.9-0.1,1.8,0.1,2.7c0,0,0,0.1,0,0.1c-0.9,0.1-1.7,0.1-2.4,0.1c-2.8,0-5.7-0.5-8.4-1.4l-0.6,1.7c2.9,1,5.9,1.5,8.9,1.5
	c1.2,0,2.4-0.1,3.6-0.2l0.9-0.1l-0.1-0.9c0-0.3,0-0.7-0.1-1c-0.1-0.7-0.1-1.5-0.1-2.2c0.1-0.9,0.4-1.8,0.6-2.7
	c0.1-0.5,0.3-0.9,0.4-1.4c0.3-0.8,0.2-1.8-0.2-2.5C35.7,52.3,35.5,51.6,35.4,51z"/>
<path class="st0" d="M26.8,10.2c0.3,0.9,0.3,1.8,0.1,2.8c-0.3,0.8-0.2,1.7,0.2,2.5c0.3,0.3,0.7,0.6,1.1,0.6h0.1
	c0.7-0.1,1.3-0.4,1.6-1c0.1-0.1,0.2-0.2,0.2-0.3c0.4-0.3,0.9-0.5,1.4-0.6c0.3,0,0.6,0,0.9,0.1c1,0.3,2,0.1,2.8-0.6
	c0.2-0.2,0.3-0.5,0.4-0.8c0-0.1,0-0.1,0.1-0.2c0.1-0.3,0.5-0.5,1-0.7c0.2-0.1,0.4-0.2,0.6-0.2c0.8-0.2,1.8-0.5,2.2-1.3
	c0.2-0.4,0.2-0.8,0-1.2c-0.6-1.3-2.4-1.5-3.6-1.6c-0.3,0-0.5,0-0.7-0.1C34,7.4,32.5,7.3,31,7.3c-0.3,0-0.6-0.1-0.9-0.1
	c-1-0.2-2.3-0.4-3.2,0.3c-0.7,0.6-0.8,1.7-0.3,2.5C26.7,10,26.8,10.1,26.8,10.2z M29.8,8.9C30.2,9,30.6,9.1,31,9.1
	c1.4,0,2.7,0.1,4.1,0.4c0.2,0,0.5,0.1,0.8,0.1c0.6,0,1.2,0.1,1.8,0.3c-0.3,0.1-0.6,0.2-0.8,0.3c-0.3,0.1-0.6,0.2-0.9,0.3
	c-0.7,0.3-1.4,0.8-1.8,1.5c0,0.1-0.1,0.2-0.1,0.3v0.2c-0.2,0.2-0.8,0.1-1.3,0c-0.4-0.1-0.9-0.1-1.3-0.1c-0.8,0.1-1.6,0.5-2.3,0.9
	c-0.2,0.2-0.4,0.3-0.5,0.5v0.1c0-0.2,0-0.4,0.1-0.6c0.3-1.2,0.2-2.5-0.2-3.8c-0.1-0.1-0.1-0.3-0.2-0.5l-0.1-0.3
	C28.4,8.7,29.2,8.8,29.8,8.9L29.8,8.9z"/>
<path class="st0" d="M57.2,22c-4.6,0-8.4,3.7-8.4,8.3s3.7,8.4,8.3,8.4c4.6,0,8.4-3.7,8.4-8.3C65.5,25.8,61.8,22.1,57.2,22z
	 M57.2,36.9c-3.6,0-6.5-2.9-6.5-6.5s2.9-6.5,6.5-6.5c3.6,0,6.5,2.9,6.5,6.5C63.7,34,60.8,36.9,57.2,36.9z"/>
<path class="st0" d="M57.2,26.4c-2.2,0-4,1.8-4,4s1.8,4,4,4s4-1.8,4-4S59.4,26.4,57.2,26.4z M57.2,33c-1.4,0-2.6-1.2-2.6-2.6
	s1.2-2.6,2.6-2.6c1.4,0,2.6,1.2,2.6,2.6c0,0,0,0,0,0C59.8,31.8,58.6,33,57.2,33L57.2,33z"/>
<path class="st0" d="M12.3,38C5.5,38,0,43.5,0,50.2s5.5,12.3,12.2,12.3c6.8,0,12.3-5.5,12.3-12.2c0,0,0,0,0,0
	C24.5,43.5,19.1,38,12.3,38z M12.2,60.8C6.4,60.7,1.8,56,1.8,50.3s4.7-10.5,10.5-10.4c5.8,0,10.5,4.7,10.4,10.5
	C22.7,56.1,18,60.7,12.2,60.8L12.2,60.8z"/>
<path class="st0" d="M12.3,43.6c-3.7,0-6.7,3-6.7,6.7c0,3.7,3,6.7,6.7,6.7c3.7,0,6.6-3,6.7-6.7C19,46.6,16,43.6,12.3,43.6
	C12.3,43.6,12.3,43.6,12.3,43.6z M12.3,55.1c-2.7,0-4.9-2.2-4.9-4.9c0-2.7,2.2-4.9,4.9-4.9s4.9,2.2,4.9,4.9c0,0,0,0,0,0
	C17.2,53,15,55.2,12.3,55.1C12.3,55.1,12.3,55.1,12.3,55.1L12.3,55.1z"/>
<path class="st0" d="M14.4,25.5c6,0,10.8-4.8,10.9-10.8S20.5,3.8,14.5,3.8c-6,0-10.8,4.8-10.9,10.8C3.6,20.6,8.5,25.5,14.4,25.5
	C14.4,25.5,14.4,25.5,14.4,25.5z M14.5,5.6c5,0,9,4,9,9s-4,9-9,9s-9-4-9-9S9.5,5.6,14.5,5.6C14.5,5.6,14.5,5.6,14.5,5.6z"/>
<path class="st0" d="M14.5,20c2.9,0,5.3-2.4,5.3-5.3c0-2.9-2.4-5.3-5.3-5.3c-2.9,0-5.3,2.4-5.3,5.3c0,0,0,0,0,0
	C9.2,17.6,11.5,20,14.5,20z M14.5,11.2c1.9,0,3.5,1.5,3.5,3.5c0,1.9-1.5,3.5-3.5,3.5S11,16.7,11,14.7c0,0,0-0.1,0-0.1
	C11,12.7,12.6,11.2,14.5,11.2L14.5,11.2z"/>
<g>
	<path class="st0" d="M206.2,31.3c3.8,0,4.9-1.1,4.9-3.7v-2.5c0-2.5-1.1-3.1-4.9-3.1c-2.6,0-5.3,0.3-8.3,0.8L197,16
		c3.4-0.7,6.4-1.1,10-1.1c10,0,12.7,3,12.7,9v2.8c0,3.5-1.2,6.2-4,8c3.4,1.5,4.7,3.6,4.7,7.4v3.1c0,5.9-2.8,9.7-13.7,9.7
		c-3.7,0-6.7-0.3-9.8-1.3l0.9-6.7c2.9,0.5,5.2,0.8,8.6,0.8c4.2,0,5.3-0.8,5.3-3.2v-2.8c0-2.2-1.4-3.2-4.4-3.2h-7.9V31h6.8V31.3z"/>
	<path class="st0" d="M251.6,44.3c0,6-3.1,10.6-13.2,10.6s-13.3-4.6-13.3-10.6V25.4c0-6,3.1-10.6,13.3-10.6s13.3,4.6,13.3,10.6v18.8
		H251.6z M233.8,43.1c0,3,0.8,4.3,4.6,4.3s4.6-1.3,4.6-4.3V26.7c0-3-0.8-4.3-4.6-4.3s-4.6,1.3-4.6,4.3V43.1z"/>
</g>
</svg>
