<?xml version="1.0" encoding="utf-8"?>
<!-- Generator: Adobe Illustrator 26.2.1, SVG Export Plug-In . SVG Version: 6.00 Build 0)  -->
<svg version="1.1" id="Layer_1" xmlns="http://www.w3.org/2000/svg" xmlns:xlink="http://www.w3.org/1999/xlink" x="0px" y="0px"
	 viewBox="0 0 220.5 89" style="enable-background:new 0 0 220.5 89;" xml:space="preserve">
<style type="text/css">
	.st0{fill:#46525A;}
</style>
<g>
	<g>
		<path class="st0" d="M179,36.8c0.2,10.1,5.6,18.3,12.2,18.3c6.6,0,12-8.2,12.2-18.3c1.1-0.3,1.9-0.8,2.1-1.3
			c0.1-0.2,0.1-0.4,0.1-0.6l0,0c0-0.8-0.3-1.5-0.8-2s-1.1-0.8-1.9-0.9v-0.7c0-7.2-5.9-10.9-11.8-10.9c-3.1,0-5.9,1-8,2.7
			c-2.4,2-3.7,4.8-3.7,8.2V32c-0.8,0.1-1.4,0.4-1.9,0.9s-0.8,1.2-0.8,2c0,0.2,0,0.4,0.1,0.6C177.1,36,177.8,36.4,179,36.8z
			 M191.2,53.2c-5.4,0-10-7.2-10.3-16c2.7,0.5,6.3,0.6,9.5,0.7h0.1c0.2,0,0.5,0,0.7,0s0.5,0,0.7,0h0.1c3.2,0,6.8-0.2,9.5-0.6
			C201.2,46,196.6,53.2,191.2,53.2z M178.8,34.2c0.3-0.3,0.8-0.4,1.5-0.4h1v-2.5c0-2.8,1-5.1,3-6.7c1-0.8,2.2-1.4,3.5-1.8v6.8h1.9
			v-7.2c0.5-0.1,0.9-0.1,1.4-0.1s1,0,1.4,0.1v7.2h1.9v-6.8c3.6,1,6.6,3.8,6.6,8.5v2.5h1c0.7,0,1.2,0.1,1.5,0.4
			c0.1,0.1,0.2,0.3,0.2,0.4c-0.9,0.6-4.9,1.3-11.9,1.3h-0.1c-0.4,0-0.8,0-1.2,0h-0.1c-7,0-11-0.8-11.9-1.3
			C178.6,34.5,178.7,34.3,178.8,34.2z"/>
	</g>
	<g>
		<path class="st0" d="M217.6,63c-0.4-2.7-2.5-3.9-4.7-4.8l-3.5-1.4l-8.1-4.3l-0.9,16.2h-18.7l-0.9-16.2l-8.3,4.3l-3.3,1.4l0,0
			c-0.3,0.1-0.6,0.2-0.9,0.3c-0.7,0.2-1.5,0.4-2.1,1.1c-0.8,0.9-1.4,2.1-1.6,3.4l-2.1,15.8h11.8h0.4h32.6h0.6h11.8L217.6,63z
			 M164.7,76.9l1.8-13.7c0.1-0.9,0.5-1.8,1.1-2.4c0.3-0.3,0.7-0.4,1.3-0.6c0.4-0.1,0.8-0.2,1.2-0.4l2.1-0.9l0.6,17.9h-8.1V76.9z
			 M174.7,76.9L174,58.1l5.2-2.7l0.8,15h22.2l0.8-15l5,2.7l-0.7,18.8C207.3,76.9,174.7,76.9,174.7,76.9z M209.3,76.9l0.6-17.9
			l2.3,0.9c2,0.8,3.3,1.7,3.5,3.3l1.8,13.7H209.3z"/>
	</g>
</g>
<g>
	<g>
		<path class="st0" d="M21.4,37.6c-0.5,0-1.4-0.2-2-0.4l0.3-1.3c0.4,0.1,1,0.2,1.4,0.2c0.7,0,1.1-0.1,1.1-0.5c0-0.5-0.3-0.5-0.8-0.5
			c-0.2,0-0.6,0-1,0L20,34.8l0.4-1.6c-3.4-0.2-4.9-2.1-4.9-4.7V22c0-2.8,1.8-4.8,5.7-4.8c1.6,0,3,0.2,4.5,0.5l-0.5,3.1
			c-1.4-0.2-2.9-0.4-4-0.4c-1.5,0-2.2,0.8-2.2,2.1v5.4c0,1.4,0.7,2.1,2.2,2.1c1.1,0,2.7-0.1,4-0.4l0.5,3.1c-1.3,0.3-2.5,0.4-3.9,0.5
			l-0.2,0.9c1.7-0.2,2.3,0.3,2.3,1.6C24,36.8,23.4,37.6,21.4,37.6z"/>
		<path class="st0" d="M34.4,33l-0.2-0.7c-1.3,0.7-2.5,1-3.2,1c-2.1,0-3-1.5-3-3.5c0-2.3,1.1-3.2,3.4-3.2h2.5v-0.9
			c0-1.2-0.2-1.6-2-1.6c-1,0-2,0.1-3.1,0.3l-0.4-2.5c1.1-0.3,2.8-0.6,4.1-0.6c3.9,0,4.8,1.2,4.8,4.3v7.3h-2.9V33z M33.8,28.9h-1.6
			c-0.7,0-1,0.2-1,0.8s0.3,0.9,0.9,0.9c0.7,0,1.2-0.2,1.7-0.4C33.8,30.2,33.8,28.9,33.8,28.9z"/>
		<path class="st0" d="M40.2,33V17l3.4-0.5V33H40.2z"/>
		<path class="st0" d="M46.8,33V21.6h3.4V33H46.8z"/>
		<path class="st0" d="M56.9,37.6c-0.5,0-1.4-0.2-2-0.4l0.3-1.3c0.4,0.1,1,0.2,1.4,0.2c0.7,0,1.1-0.1,1.1-0.5c0-0.5-0.3-0.5-0.8-0.5
			c-0.2,0-0.6,0-1,0l-0.3-0.3l0.4-1.6c-1.1-0.1-2.3-0.3-3.1-0.6l0.5-2.5c0.9,0.3,2.2,0.5,3.4,0.5c1,0,1.2-0.3,1.2-1s0-0.8-1.8-1.3
			c-2.8-0.7-3-1.4-3-3.5c0-2.4,0.9-3.4,4.3-3.4c0.9,0,2.5,0.1,3.5,0.4l-0.3,2.6c-1-0.2-2.2-0.3-3.1-0.3c-1,0-1.2,0.3-1.2,0.8
			c0,0.7,0.1,0.8,1.4,1.1c3.2,0.7,3.5,1.4,3.5,3.7c0,2.2-0.9,3.5-3.8,3.6l-0.2,0.9c1.7-0.2,2.3,0.3,2.3,1.6
			C59.6,36.8,58.9,37.6,56.9,37.6z"/>
		<path class="st0" d="M69.9,33l-0.2-0.7c-1.3,0.7-2.5,1-3.2,1c-2.1,0-3-1.5-3-3.5c0-2.3,1.1-3.2,3.4-3.2h2.5v-0.9
			c0-1.2-0.2-1.6-2-1.6c-1,0-2,0.1-3.1,0.3l-0.4-2.5c1.1-0.3,2.8-0.6,4.1-0.6c3.9,0,4.8,1.2,4.8,4.3v7.3h-2.9V33z M69.3,28.9h-1.6
			c-0.7,0-1,0.2-1,0.8s0.3,0.9,0.9,0.9c0.7,0,1.2-0.2,1.7-0.4V28.9z"/>
		<path class="st0" d="M82.3,33v-7.5c0-0.5-0.2-0.8-0.8-0.8c-0.6,0-1.7,0.4-2.5,0.8V33h-3.4V21.6h2.5l0.4,0.9
			c1.4-0.7,3.2-1.1,4.5-1.1c1.9,0,2.6,1.4,2.6,3.6v8C85.6,33,82.3,33,82.3,33z"/>
		<path class="st0" d="M98.5,33.2c-1.8,0-3.7-0.4-5-1l0.6-2.7c1.4,0.4,2.9,0.7,4.5,0.7c1.8,0,2.1-0.4,2.1-1.7c0-1.4-0.1-1.6-2.6-2.1
			c-3.8-0.8-4.3-1.6-4.3-4.9c0-3.1,1.1-4.3,5.4-4.3c1.4,0,3,0.1,4.7,0.5l-0.4,2.9c-1.8-0.3-2.9-0.4-4.3-0.4c-1.6,0-1.9,0.3-1.9,1.4
			c0,1.5,0.1,1.5,2.5,2.1c4.2,1,4.4,1.8,4.4,4.9C104.2,31.7,103.2,33.2,98.5,33.2z"/>
		<path class="st0" d="M113,33l-0.2-0.7c-1.3,0.7-2.5,1-3.2,1c-2.1,0-3-1.5-3-3.5c0-2.3,1.1-3.2,3.4-3.2h2.5v-0.9
			c0-1.2-0.2-1.6-2-1.6c-1,0-2,0.1-3.1,0.3l-0.4-2.5c1.1-0.3,2.8-0.6,4.1-0.6c3.9,0,4.8,1.2,4.8,4.3v7.3H113V33z M112.4,28.9h-1.6
			c-0.7,0-1,0.2-1,0.8s0.3,0.9,0.9,0.9c0.7,0,1.2-0.2,1.7-0.4V28.9z"/>
		<path class="st0" d="M120.6,37.6l1.3-4.6h-1.1l-3.5-11.4h3.4l2.3,8.1l2.3-8.1h3.4L125.1,33l-1.4,4.6H120.6z"/>
		<path class="st0" d="M130.6,33V21.6h3.4V33H130.6z"/>
		<path class="st0" d="M140.8,33.2c-1.2,0-3-0.3-4.1-0.7l0.5-2.5c0.9,0.3,2.2,0.5,3.4,0.5c1,0,1.2-0.3,1.2-1s0-0.8-1.8-1.3
			c-2.8-0.7-3-1.4-3-3.5c0-2.4,0.9-3.4,4.3-3.4c0.9,0,2.5,0.1,3.5,0.4l-0.3,2.6c-1-0.2-2.2-0.3-3.1-0.3c-1,0-1.2,0.3-1.2,0.8
			c0,0.7,0.1,0.8,1.4,1.1c3.2,0.7,3.5,1.4,3.5,3.7C145,31.9,144,33.2,140.8,33.2z"/>
		<path class="st0" d="M147.5,33V21.6h3.4V33H147.5z"/>
	</g>
	<g>
		<path class="st0" d="M2.6,53.9v-6.2h10.8v28.5H6.4V53.9H2.6z"/>
		<path class="st0" d="M18.9,54.7c0-1.4,0.4-2.7,1.1-3.8c0.7-1.2,1.8-2.1,3.3-2.8c1.5-0.7,3.3-1,5.5-1c2.2,0,4,0.3,5.4,1
			c1.5,0.7,2.6,1.6,3.3,2.8c0.7,1.2,1.1,2.4,1.1,3.8c0,1.4-0.3,2.6-1,3.7c-0.7,1-1.6,1.9-2.7,2.5c1.4,0.7,2.5,1.6,3.2,2.8
			c0.8,1.2,1.1,2.6,1.1,4.2c0,1.8-0.5,3.4-1.4,4.8c-0.9,1.3-2.2,2.4-3.8,3.1c-1.6,0.7-3.4,1.1-5.3,1.1s-3.7-0.4-5.3-1.1
			c-1.6-0.7-2.9-1.7-3.8-3.1c-0.9-1.3-1.4-2.9-1.4-4.8c0-1.6,0.4-3,1.1-4.2c0.8-1.2,1.8-2.1,3.2-2.7C20.2,59.6,18.9,57.5,18.9,54.7z
			 M25.8,64.7c-0.8,0.7-1.1,1.6-1.1,2.7c0,1.1,0.4,2,1.1,2.7s1.7,1.1,3,1.1c1.2,0,2.2-0.4,2.9-1.1c0.7-0.7,1.1-1.6,1.1-2.7
			c0-1.1-0.4-2.1-1.1-2.7c-0.7-0.7-1.7-1-2.9-1C27.6,63.8,26.6,64.1,25.8,64.7z M31.2,53.3c-0.6-0.6-1.4-0.9-2.4-0.9
			s-1.8,0.3-2.4,0.9c-0.6,0.6-0.9,1.4-0.9,2.5c0,1,0.3,1.8,0.9,2.4c0.6,0.6,1.4,0.9,2.4,0.9c1,0,1.8-0.3,2.4-0.9
			c0.6-0.6,0.9-1.4,0.9-2.4C32.2,54.7,31.8,53.9,31.2,53.3z"/>
		<path class="st0" d="M44.1,75.4c-0.7-0.7-1.1-1.5-1.1-2.6c0-1,0.4-1.9,1.1-2.6c0.7-0.7,1.7-1.1,2.9-1.1c1.1,0,2.1,0.4,2.8,1.1
			c0.7,0.7,1.1,1.6,1.1,2.6c0,1-0.4,1.9-1.1,2.6c-0.7,0.7-1.7,1-2.8,1C45.8,76.5,44.8,76.1,44.1,75.4z"/>
		<path class="st0" d="M56.8,51c1.7-2.6,4.5-3.9,8.4-3.9c3.8,0,6.6,1.3,8.4,3.9c1.7,2.6,2.6,6.1,2.6,10.6c0,4.5-0.9,8.1-2.6,10.6
			C71.8,74.7,69,76,65.1,76c-3.8,0-6.6-1.3-8.4-3.9c-1.7-2.6-2.6-6.1-2.6-10.6C54.2,57.1,55.1,53.5,56.8,51z M68.7,55.5
			c-0.6-1.4-1.8-2.1-3.5-2.1c-1.8,0-3,0.7-3.5,2.1c-0.6,1.4-0.9,3.4-0.9,6.1c0,1.8,0.1,3.2,0.3,4.4c0.2,1.2,0.6,2.1,1.3,2.8
			c0.6,0.7,1.6,1.1,2.8,1.1c1.2,0,2.2-0.4,2.8-1.1c0.6-0.7,1.1-1.7,1.3-2.8c0.2-1.2,0.3-2.6,0.3-4.4C69.6,58.9,69.3,56.9,68.7,55.5z
			"/>
		<path class="st0" d="M82.2,51c1.7-2.6,4.5-3.9,8.4-3.9c3.8,0,6.6,1.3,8.4,3.9c1.7,2.6,2.6,6.1,2.6,10.6c0,4.5-0.9,8.1-2.6,10.6
			c-1.7,2.6-4.5,3.9-8.4,3.9c-3.8,0-6.6-1.3-8.4-3.9c-1.7-2.6-2.6-6.1-2.6-10.6C79.6,57.1,80.5,53.5,82.2,51z M94.1,55.5
			c-0.6-1.4-1.8-2.1-3.5-2.1c-1.8,0-3,0.7-3.5,2.1c-0.6,1.4-0.9,3.4-0.9,6.1c0,1.8,0.1,3.2,0.3,4.4c0.2,1.2,0.6,2.1,1.3,2.8
			c0.6,0.7,1.6,1.1,2.8,1.1c1.2,0,2.2-0.4,2.8-1.1c0.6-0.7,1.1-1.7,1.3-2.8c0.2-1.2,0.3-2.6,0.3-4.4C95,58.9,94.7,56.9,94.1,55.5z"
			/>
		<path class="st0" d="M107.6,51c1.7-2.6,4.5-3.9,8.4-3.9c3.8,0,6.6,1.3,8.4,3.9c1.7,2.6,2.6,6.1,2.6,10.6c0,4.5-0.9,8.1-2.6,10.6
			c-1.7,2.6-4.5,3.9-8.4,3.9c-3.8,0-6.6-1.3-8.4-3.9c-1.7-2.6-2.6-6.1-2.6-10.6C105,57.1,105.9,53.5,107.6,51z M119.5,55.5
			c-0.6-1.4-1.8-2.1-3.5-2.1c-1.8,0-3,0.7-3.5,2.1c-0.6,1.4-0.9,3.4-0.9,6.1c0,1.8,0.1,3.2,0.3,4.4c0.2,1.2,0.6,2.1,1.3,2.8
			c0.6,0.7,1.6,1.1,2.8,1.1c1.2,0,2.2-0.4,2.8-1.1c0.6-0.7,1.1-1.7,1.3-2.8c0.2-1.2,0.3-2.6,0.3-4.4
			C120.4,58.9,120.1,56.9,119.5,55.5z"/>
		<path class="st0" d="M150.9,65.5h-6.8v6.9h-6.3v-6.9H131v-6h6.8v-7h6.3v7h6.8V65.5z"/>
	</g>
</g>
</svg>
