<?xml version="1.0" encoding="UTF-8"?>
<svg id="katman_2" data-name="katman 2" xmlns="http://www.w3.org/2000/svg" viewBox="0 0 262.77 110.49">
  <g id="Layer_1" data-name="Layer 1">
    <g>
      <path d="M35.21,16.66V3.34h8.38v2.66h-5.38v2.44h4.96v2.66h-4.96v2.9h5.38v2.66h-8.38Z" style="fill: #46525a;"/>
      <path d="M48.95,7.9v8.76h-2.86V3.34h3.68l4.38,9.18V3.34h2.86v13.32h-3.7l-4.36-8.76Z" style="fill: #46525a;"/>
      <path d="M64.57,12.52h-1.76v4.14h-3V3.34h5.54c3.24,0,4.44,1.28,4.44,3.78v1.64c0,1.66-.6,2.78-1.94,3.34l3.22,4.56h-3.56l-2.94-4.14Zm2.22-5.12c0-1-.38-1.4-1.6-1.4h-2.38v3.92h2.38c1.28,0,1.6-.46,1.6-1.46v-1.06Z" style="fill: #46525a;"/>
      <path d="M77.26,16.66V3.34h8.38v2.66h-5.38v2.44h4.96v2.66h-4.96v2.9h5.38v2.66h-8.38Z" style="fill: #46525a;"/>
      <path d="M93.83,16.66v-6.44c0-.44-.2-.7-.7-.7s-1.48,.36-2.1,.7v6.44h-2.88V6.92h2.14l.3,.74c1.2-.58,2.76-.94,3.88-.94,1.66,0,2.24,1.24,2.24,3.12v6.82h-2.88Z" style="fill: #46525a;"/>
      <path d="M109.49,16.66h-5.68V3.34h5.26c2.78,0,3.8,1.12,3.8,2.92v1.36c0,.96-.42,1.64-1.48,2.1,1.1,.26,1.96,1.22,1.96,2.46v1.3c0,1.88-1.2,3.18-3.86,3.18Zm.38-9.96c0-.58-.36-.94-1.2-.94h-1.86v3.04h1.86c.8,0,1.2-.4,1.2-.94v-1.16Zm.48,5.56c0-.74-.46-1.12-1.26-1.12h-2.28v3.1h1.86c.94,0,1.68-.2,1.68-1.16v-.82Z" style="fill: #46525a;"/>
      <path d="M118.22,6.92v6.44c0,.44,.2,.7,.7,.7s1.48-.36,2.1-.7V6.92h2.88v9.74h-2.14l-.3-.74c-1.2,.58-2.76,.94-3.88,.94-1.66,0-2.24-1.24-2.24-3.12V6.92h2.88Zm-1.6-1.34V3.22h2.28v2.36h-2.28Zm4.2,0V3.22h2.28v2.36h-2.28Z" style="fill: #46525a;"/>
      <path d="M128.29,20.6l1.14-3.94h-.92l-3-9.74h2.92l1.98,6.9,1.98-6.9h2.92l-3.06,9.74-1.24,3.94h-2.72Z" style="fill: #46525a;"/>
      <path d="M139.58,6.92v6.44c0,.44,.2,.7,.7,.7s1.48-.36,2.1-.7V6.92h2.88v9.74h-2.14l-.3-.74c-1.2,.58-2.76,.94-3.88,.94-1.66,0-2.24-1.24-2.24-3.12V6.92h2.88Zm-1.6-1.34V3.22h2.28v2.36h-2.28Zm4.2,0V3.22h2.28v2.36h-2.28Z" style="fill: #46525a;"/>
      <path d="M148.06,16.66V2.94l2.88-.4v14.12h-2.88Zm5.74-9.74h3.08l-2.56,4.84,2.68,4.9h-3.08l-2.6-4.9,2.48-4.84Z" style="fill: #46525a;"/>
      <path d="M166.86,14.14h4.1v2.52h-8.08v-2.46c1.44-1.48,1.7-1.72,2.9-3.08,1.96-2.24,2.18-2.36,2.18-3.72v-.36c0-.7-.46-.94-1.58-.94-.96,0-2.44,.16-3.3,.38l-.38-2.42c1.24-.32,2.66-.52,3.82-.52,3.08,0,4.32,.96,4.32,3.14v.52c0,1.9-.02,2.26-1.84,4.46-.96,1.16-1.56,1.86-2.14,2.48Z" style="fill: #46525a;"/>
      <path d="M176.82,11.4c-1.44-.06-2.1-.08-3.18-.1V3.74h7.3v2.5h-4.42v2.72c.68,.02,1.04,.04,1.8,.08,2.3,.14,2.9,1.26,2.9,2.84v1.42c-.02,2.28-.86,3.56-4.5,3.56-.9,0-2.46-.16-3.56-.5l.42-2.32c1,.22,2.16,.32,3.12,.32,1.36,0,1.64-.38,1.64-1.22v-.54c0-.9-.24-1.14-1.52-1.2Z" style="fill: #46525a;"/>
      <path d="M192.26,13.32c0,2-1.04,3.54-4.42,3.54s-4.42-1.54-4.42-3.54V7.08c0-2,1.04-3.54,4.42-3.54s4.42,1.54,4.42,3.54v6.24Zm-5.96-.4c0,1,.28,1.42,1.54,1.42s1.54-.42,1.54-1.42V7.48c0-1-.28-1.42-1.54-1.42s-1.54,.42-1.54,1.42v5.44Z" style="fill: #46525a;"/>
      <path d="M33.04,26.94l-.23,9.72h-1.49l.41-11.99h1.96l3.46,9.27,3.46-9.27h1.96l.41,11.99h-1.5l-.23-9.72-3.06,8.17h-2.09l-3.06-8.17Z" style="fill: #46525a;"/>
      <path d="M47.37,27.89v6.7c0,.58,.29,.81,.85,.81,.65,0,2-.4,2.94-.88v-6.63h1.51v8.77h-1.22l-.14-.76c-.97,.47-2.48,.94-3.53,.94-1.4,0-1.91-.88-1.91-2.23v-6.72h1.51Zm-.29-2.83h1.4v1.49h-1.4v-1.49Zm3.12,0h1.4v1.49h-1.4v-1.49Z" style="fill: #46525a;"/>
      <path d="M60.29,36.52c-.54,.2-1.19,.32-1.84,.32-1.48,0-2.18-.54-2.18-2v-5.69h-1.55v-1.26h1.55v-2.16l1.51-.22v2.38h2.48l-.13,1.26h-2.36v5.44c0,.65,.09,.97,.9,.97,.42,0,.85-.07,1.41-.22l.2,1.17Z" style="fill: #46525a;"/>
      <path d="M65.69,35.54c.86,0,1.82-.16,2.77-.41l.2,1.21c-.83,.31-2,.5-3.1,.5-2.59,0-3.47-1.24-3.47-3.22v-2.63c0-1.82,.83-3.28,3.44-3.28s3.29,1.49,3.29,3.31v1.84h-5.22v.74c0,1.39,.38,1.94,2.09,1.94Zm-2.09-3.94h3.76v-.72c0-1.22-.41-1.91-1.84-1.91s-1.93,.68-1.93,1.91v.72Z" style="fill: #46525a;"/>
      <path d="M77.55,36.66h-1.28l-.09-.65c-.77,.54-1.78,.83-2.84,.83-1.64,0-2.32-.97-2.32-2.52,0-1.82,.92-2.47,2.68-2.47h2.34v-1.37c0-1.1-.49-1.48-1.91-1.48-.85,0-1.94,.14-2.63,.29l-.16-1.21c.83-.22,1.95-.38,2.88-.38,2.5,0,3.33,.97,3.33,2.84v6.1Zm-1.51-3.55h-2.23c-.94,0-1.28,.29-1.28,1.17s.16,1.26,1.24,1.26c.76,0,1.6-.29,2.27-.72v-1.71Z" style="fill: #46525a;"/>
      <path d="M85.69,36.66v-6.7c0-.58-.29-.81-.85-.81-.65,0-2,.41-2.93,.9v6.61h-1.51v-12.35l1.51-.22v4.54c.97-.47,2.36-.92,3.38-.92,1.4,0,1.91,.88,1.91,2.23v6.72h-1.51Z" style="fill: #46525a;"/>
      <path d="M95.46,36.66v-6.7c0-.58-.29-.81-.85-.81-.65,0-2,.41-2.93,.9v6.61h-1.51v-12.35l1.51-.22v4.54c.97-.47,2.36-.92,3.38-.92,1.4,0,1.91,.88,1.91,2.23v6.72h-1.51Z" style="fill: #46525a;"/>
      <path d="M99.94,26.49v-2.18h1.51v2.18h-1.51Zm0,10.17v-8.77h1.51v8.77h-1.51Z" style="fill: #46525a;"/>
      <path d="M109.09,36.52c-.54,.2-1.19,.32-1.84,.32-1.48,0-2.18-.54-2.18-2v-5.69h-1.55v-1.26h1.55v-2.16l1.51-.22v2.38h2.48l-.13,1.26h-2.36v5.44c0,.65,.09,.97,.9,.97,.41,0,.85-.07,1.4-.22l.2,1.17Z" style="fill: #46525a;"/>
      <path d="M118.59,36.84c-1.15,0-2.54-.22-3.56-.63l.25-1.26c1.1,.34,2.25,.52,3.35,.52,1.93,0,2.32-.5,2.32-1.87,0-1.62-.02-1.76-2.48-2.32-2.9-.65-3.24-1.21-3.24-3.69,0-2.09,.86-3.1,3.84-3.1,1.04,0,2.29,.14,3.24,.4l-.13,1.31c-.95-.22-2.09-.34-3.08-.34-1.96,0-2.32,.4-2.32,1.78,0,1.66,0,1.73,2.38,2.32,3.19,.79,3.35,1.26,3.35,3.6,0,2.09-.61,3.28-3.91,3.28Z" style="fill: #46525a;"/>
      <path d="M125.29,36.66v-8.77h1.51v8.77h-1.51Z" style="fill: #46525a;"/>
      <path d="M133.88,29.1c-.83,.4-1.78,1.01-2.5,1.51v6.05h-1.51v-8.77h1.31l.09,1.22c.65-.5,1.55-1.04,2.41-1.4l.2,1.39Z" style="fill: #46525a;"/>
      <path d="M141.74,36.66h-1.28l-.09-.65c-.77,.54-1.78,.83-2.84,.83-1.64,0-2.32-.97-2.32-2.52,0-1.82,.92-2.47,2.68-2.47h2.34v-1.37c0-1.1-.49-1.48-1.91-1.48-.85,0-1.94,.14-2.63,.29l-.16-1.21c.83-.22,1.95-.38,2.88-.38,2.5,0,3.33,.97,3.33,2.84v6.1Zm-1.51-3.55h-2.23c-.94,0-1.28,.29-1.28,1.17s.16,1.26,1.24,1.26c.76,0,1.6-.29,2.27-.72v-1.71Z" style="fill: #46525a;"/>
      <path d="M144.58,36.66v-12.35l1.51-.22v12.57h-1.51Z" style="fill: #46525a;"/>
      <path d="M155.37,36.66h-1.28l-.09-.65c-.77,.54-1.78,.83-2.84,.83-1.64,0-2.32-.97-2.32-2.52,0-1.82,.92-2.47,2.68-2.47h2.34v-1.37c0-1.1-.49-1.48-1.91-1.48-.85,0-1.94,.14-2.63,.29l-.16-1.21c.83-.22,1.95-.38,2.88-.38,2.5,0,3.33,.97,3.33,2.84v6.1Zm-1.51-3.55h-2.23c-.94,0-1.28,.29-1.28,1.17s.16,1.26,1.24,1.26c.76,0,1.6-.29,2.27-.72v-1.71Z" style="fill: #46525a;"/>
      <path d="M168.8,36.66v-6.7c0-.58-.29-.81-.85-.81-.72,0-2,.4-2.93,.88v6.63h-1.51v-6.7c0-.58-.29-.81-.85-.81-.65,0-2,.4-2.93,.88v6.63h-1.51v-8.77h1.22l.14,.76c.97-.47,2.48-.94,3.53-.94,.9,0,1.42,.34,1.67,.94,1.04-.5,2.52-.94,3.62-.94,1.4,0,1.91,.88,1.91,2.23v6.72h-1.51Z" style="fill: #46525a;"/>
      <path d="M179.49,36.66h-1.28l-.09-.65c-.77,.54-1.78,.83-2.84,.83-1.64,0-2.32-.97-2.32-2.52,0-1.82,.92-2.47,2.68-2.47h2.34v-1.37c0-1.1-.49-1.48-1.91-1.48-.85,0-1.95,.14-2.63,.29l-.16-1.21c.83-.22,1.94-.38,2.88-.38,2.5,0,3.33,.97,3.33,2.84v6.1Zm-1.51-3.55h-2.23c-.94,0-1.28,.29-1.28,1.17s.16,1.26,1.24,1.26c.76,0,1.6-.29,2.27-.72v-1.71Z" style="fill: #46525a;"/>
      <path d="M184.76,36.84c-.9,0-2.09-.2-2.79-.47l.2-1.19c.76,.22,1.75,.36,2.5,.36,1.39,0,1.62-.25,1.62-1.19s-.07-1.04-1.84-1.48c-2.18-.54-2.38-.99-2.38-2.81,0-1.62,.72-2.36,3.03-2.36,.85,0,1.76,.11,2.48,.31l-.11,1.24c-.74-.14-1.71-.25-2.43-.25-1.3,0-1.48,.31-1.48,1.1,0,.97,.02,1.15,1.5,1.51,2.52,.63,2.72,.94,2.72,2.68s-.52,2.54-3.03,2.54Z" style="fill: #46525a;"/>
      <path d="M190.41,36.66v-8.77h1.51v8.77h-1.51Z" style="fill: #46525a;"/>
    </g>
    <g>
      <path d="M84.41,53.64v11.35c0,2.52-1.42,4.87-5.9,4.87s-5.9-2.35-5.9-4.87v-11.35h3.02v11.11c0,1.56,.74,2.45,2.88,2.45s2.88-.89,2.88-2.45v-11.11h3.02Z" style="fill: #46525a;"/>
      <path d="M88.01,69.62v-16.46l2.93-.41v16.87h-2.93Z" style="fill: #46525a;"/>
      <path d="M97.35,57.93v8.16c0,.62,.26,.94,.94,.94,.72,0,1.99-.43,3.05-.98v-8.11h2.93v11.69h-2.23l-.29-.98c-1.46,.72-3.31,1.22-4.68,1.22-1.94,0-2.64-1.37-2.64-3.46v-8.47h2.93Z" style="fill: #46525a;"/>
      <path d="M111.48,69.86c-1.25,0-2.95-.29-4.03-.67l.41-2.23c.98,.29,2.28,.5,3.48,.5,1.3,0,1.49-.29,1.49-1.18,0-.72-.14-1.08-2.04-1.54-2.86-.7-3.19-1.42-3.19-3.67s1.03-3.38,4.37-3.38c1.08,0,2.5,.14,3.5,.41l-.29,2.33c-.89-.17-2.3-.34-3.22-.34-1.27,0-1.49,.29-1.49,1.01,0,.94,.07,1.01,1.66,1.42,3.26,.86,3.58,1.3,3.58,3.7,0,2.26-.7,3.65-4.22,3.65Z" style="fill: #46525a;"/>
      <path d="M118.83,69.62v-16.46l2.93-.41v16.87h-2.93Z" style="fill: #46525a;"/>
      <path d="M134.02,69.62h-2.4l-.22-.79c-1.06,.7-2.3,1.03-3.48,1.03-2.14,0-3.05-1.46-3.05-3.48,0-2.38,1.03-3.29,3.41-3.29h2.81v-1.22c0-1.3-.36-1.75-2.23-1.75-1.06,0-2.21,.14-3.24,.36l-.36-2.23c1.1-.34,2.71-.55,4.01-.55,3.67,0,4.75,1.3,4.75,4.22v7.7Zm-2.93-4.42h-2.16c-.96,0-1.22,.26-1.22,1.15,0,.82,.26,1.18,1.18,1.18,.86,0,1.66-.29,2.21-.6v-1.73Z" style="fill: #46525a;"/>
      <path d="M143.4,60.38c-1.13,.5-2.04,1.03-3.1,1.7v7.54h-2.93v-11.69h2.47l.19,1.3c.65-.43,2.04-1.25,3.07-1.54l.29,2.69Z" style="fill: #46525a;"/>
      <path d="M154.2,69.62h-2.4l-.22-.79c-1.06,.7-2.3,1.03-3.48,1.03-2.14,0-3.05-1.46-3.05-3.48,0-2.38,1.03-3.29,3.41-3.29h2.81v-1.22c0-1.3-.36-1.75-2.23-1.75-1.06,0-2.21,.14-3.24,.36l-.36-2.23c1.1-.34,2.71-.55,4.01-.55,3.67,0,4.75,1.3,4.75,4.22v7.7Zm-2.93-4.42h-2.16c-.96,0-1.22,.26-1.22,1.15,0,.82,.26,1.18,1.18,1.18,.86,0,1.66-.29,2.21-.6v-1.73Z" style="fill: #46525a;"/>
      <path d="M163.59,60.38c-1.13,.5-2.04,1.03-3.1,1.7v7.54h-2.93v-11.69h2.47l.19,1.3c.65-.43,2.04-1.25,3.07-1.54l.29,2.69Z" style="fill: #46525a;"/>
      <path d="M174.39,69.62h-2.4l-.22-.79c-1.06,.7-2.3,1.03-3.48,1.03-2.14,0-3.05-1.46-3.05-3.48,0-2.38,1.03-3.29,3.41-3.29h2.81v-1.22c0-1.3-.36-1.75-2.23-1.75-1.06,0-2.21,.14-3.24,.36l-.36-2.23c1.1-.34,2.71-.55,4.01-.55,3.67,0,4.75,1.3,4.75,4.22v7.7Zm-2.93-4.42h-2.16c-.96,0-1.22,.26-1.22,1.15,0,.82,.26,1.18,1.18,1.18,.86,0,1.66-.29,2.21-.6v-1.73Z" style="fill: #46525a;"/>
      <path d="M181.37,69.86c-1.25,0-2.95-.29-4.03-.67l.41-2.23c.98,.29,2.28,.5,3.48,.5,1.3,0,1.49-.29,1.49-1.18,0-.72-.14-1.08-2.04-1.54-2.86-.7-3.19-1.42-3.19-3.67s1.03-3.38,4.37-3.38c1.08,0,2.5,.14,3.5,.41l-.29,2.33c-.89-.17-2.3-.34-3.22-.34-1.27,0-1.49,.29-1.49,1.01,0,.94,.07,1.01,1.66,1.42,3.26,.86,3.58,1.3,3.58,3.7,0,2.26-.7,3.65-4.22,3.65Z" style="fill: #46525a;"/>
      <path d="M188.71,69.62v-11.69h2.93v11.69h-2.93Z" style="fill: #46525a;"/>
    </g>
    <g>
      <path d="M130.68,98.18h-5.93l-1.01,3.31h-3.17l5.04-15.99h4.22l5.04,15.99h-3.17l-1.03-3.31Zm-5.18-2.62h4.42l-2.18-7.56-2.23,7.56Z" style="fill: #46525a;"/>
      <path d="M142.85,101.49h-3.86l-3.74-11.69h3l2.67,8.88,2.69-8.88h3l-3.75,11.69Z" style="fill: #46525a;"/>
      <path d="M154.66,92.25c-1.13,.5-2.04,1.03-3.1,1.7v7.54h-2.93v-11.69h2.47l.19,1.3c.65-.43,2.04-1.25,3.07-1.54l.29,2.69Z" style="fill: #46525a;"/>
      <path d="M159.67,89.8v8.16c0,.62,.26,.94,.94,.94,.72,0,1.99-.43,3.05-.98v-8.11h2.93v11.69h-2.23l-.29-.98c-1.46,.72-3.31,1.22-4.68,1.22-1.94,0-2.64-1.37-2.64-3.46v-8.47h2.93Z" style="fill: #46525a;"/>
      <path d="M180.1,97.6c0,2.59-1.15,4.13-3.86,4.13-1.03,0-2.21-.14-3.12-.34v4.83l-2.93,.41v-16.83h2.33l.29,.98c1.03-.74,2.23-1.22,3.7-1.22,2.35,0,3.6,1.39,3.6,4.06v3.98Zm-6.98,1.32c.77,.17,1.75,.31,2.59,.31,1.06,0,1.46-.5,1.46-1.56v-4.13c0-.96-.36-1.49-1.44-1.49-.96,0-1.99,.48-2.62,1.06v5.81Z" style="fill: #46525a;"/>
      <path d="M191.88,101.49h-2.4l-.22-.79c-1.06,.7-2.3,1.03-3.48,1.03-2.14,0-3.05-1.46-3.05-3.48,0-2.38,1.03-3.29,3.41-3.29h2.81v-1.22c0-1.3-.36-1.75-2.23-1.75-1.06,0-2.21,.14-3.24,.36l-.36-2.23c1.1-.34,2.71-.55,4.01-.55,3.67,0,4.75,1.3,4.75,4.22v7.71Zm-2.93-4.42h-2.16c-.96,0-1.22,.26-1.22,1.15,0,.82,.26,1.18,1.18,1.18,.86,0,1.66-.29,2.21-.6v-1.73Z" style="fill: #46525a;"/>
    </g>
    <g>
      <path d="M14.4,63.97h-5.11l-.29,5.65h-3.71l.29-5.65H1.26l.18-3.46H5.72l.25-5.18H1.58l.18-3.46H6.16l.29-5.51h3.71l-.29,5.51h5.11l.29-5.51h3.71l-.29,5.51h4.1l-.18,3.46h-4.1l-.25,5.18h4.21l-.18,3.46h-4.18l-.29,5.65h-3.71l.29-5.65Zm-4.97-3.46h5.11l.25-5.18h-5.11l-.25,5.18Z" style="fill: #46525a;"/>
      <path d="M33.69,65.09h7.38v4.54h-14.54v-4.43c2.59-2.66,3.06-3.1,5.22-5.54,3.53-4.03,3.92-4.25,3.92-6.7v-.65c0-1.26-.83-1.69-2.84-1.69-1.73,0-4.39,.29-5.94,.68l-.68-4.36c2.23-.58,4.79-.94,6.88-.94,5.54,0,7.78,1.73,7.78,5.65v.94c0,3.42-.04,4.07-3.31,8.03-1.73,2.09-2.81,3.35-3.85,4.46Z" style="fill: #46525a;"/>
      <path d="M59.29,64.69v4.93h-5.11v-4.93h-10.58v-4.5l8.89-13.82h6.8v14.11h2.92v4.21h-2.92Zm-5.11-13.17l-5.51,8.96h5.51v-8.96Z" style="fill: #46525a;"/>
    </g>
    <g>
      <path d="M82.56,95.84h-5.11l-.29,5.65h-3.71l.29-5.65h-4.32l.18-3.46h4.28l.25-5.18h-4.39l.18-3.46h4.39l.29-5.51h3.71l-.29,5.51h5.11l.29-5.51h3.71l-.29,5.51h4.1l-.18,3.46h-4.1l-.25,5.18h4.21l-.18,3.46h-4.17l-.29,5.65h-3.71l.29-5.65Zm-4.97-3.46h5.11l.25-5.18h-5.11l-.25,5.18Z" style="fill: #46525a;"/>
      <path d="M97.75,89.65c-1.87-1.22-2.45-2.41-2.45-4.03v-2.02c0-3.64,1.87-5.72,7.24-5.72s7.23,2.09,7.23,5.72v2.02c0,1.73-.58,2.84-2.45,4.03,2.34,1.26,3.02,2.48,3.02,4.25v1.84c0,4.39-2.09,6.12-7.81,6.12s-7.81-1.73-7.81-6.12v-1.84c0-1.73,.68-2.99,3.02-4.25Zm4.79,7.95c2.16,0,2.81-.58,2.81-1.94v-1.19c0-1.19-.14-1.62-2.88-2.66-2.74,1.04-2.74,1.48-2.74,2.66v1.19c0,1.51,.65,1.94,2.81,1.94Zm.07-9.83c2.12-.79,2.16-1.15,2.16-2.23v-1.73c0-1.15-.4-1.73-2.23-1.73s-2.23,.58-2.23,1.73v1.73c0,1.08,.18,1.44,2.3,2.23Z" style="fill: #46525a;"/>
    </g>
    <g>
      <path d="M262.61,12.14c-40.73,1.55-59.1,20.53-59.1,20.53v57.4c38.7-1.42,57.26-18.58,59.1-20.38V12.14Zm-1.82,56.77c-3.64,3.32-21.15,17.52-55.46,19.26V33.45c3.15-2.88,20.82-17.59,55.46-19.41v54.86Z" style="fill: #46525a;"/>
      <path d="M262.61,69.74c-.04,.05-.08,.1-.12,.16l.12-.12v-.03Z" style="fill: #46525a;"/>
      <polygon points="223.19 47.1 213.8 47.1 213.8 44.91 222.09 44.91 222.09 40.73 213.8 40.73 213.8 38.54 222.92 38.54 222.92 34.04 208.38 34.04 208.38 51.6 223.19 51.6 223.19 47.1" style="fill: #46525a;"/>
      <polygon points="229.37 42.01 229.42 42.01 234.81 51.6 240.07 51.6 240.07 34.04 234.95 34.04 234.95 43.43 234.9 43.43 229.78 34.04 224.25 34.04 224.25 51.6 229.37 51.6 229.37 42.01" style="fill: #46525a;"/>
      <path d="M246.83,45.48h2.88c2.14,0,2.31,1.75,2.44,3.42,.07,.91,.17,1.82,.44,2.71h5.41c-.52-.76-.52-2.93-.59-3.76-.2-2.19-1.11-3.81-2.59-4.38,1.8-.66,2.63-2.58,2.63-4.4,0-3.32-2.68-5.02-5.73-5.02h-10.31v17.56h5.41v-6.13Zm0-7.26h2.53c2.07,0,2.68,.64,2.68,1.75,0,1.57-1.38,1.74-2.39,1.74h-2.83v-3.49Z" style="fill: #46525a;"/>
      <path d="M234.73,66.48h-6.16l4.06-4.3c.38-.41,.7-.78,.97-1.1,.26-.32,.46-.61,.59-.86,.37-.65,.55-1.39,.55-2.22,0-1.58-.51-2.83-1.53-3.75-1.02-.92-2.33-1.39-3.92-1.39s-2.81,.45-3.85,1.34c-1.1,.99-1.65,2.27-1.65,3.85h3.92c0-1.1,.52-1.65,1.58-1.65s1.53,.53,1.53,1.58c0,.59-.29,1.2-.86,1.82l-6.16,6.69v3.54h10.94v-3.54Z" style="fill: #46525a;"/>
      <path d="M241.73,58.5c-.94,0-1.7,.22-2.29,.67v-2.63h6.81v-3.54h-10.37v10.01h3.61c.3-.81,.84-1.22,1.6-1.22,1.07,0,1.6,.8,1.6,2.41,0,.99-.16,1.64-.48,1.96s-.68,.45-1.12,.45c-.96,0-1.49-.6-1.6-1.79h-3.92c0,.81,.14,1.54,.41,2.2,.27,.65,.63,1.2,1.08,1.65,.99,.99,2.33,1.48,4.04,1.48s2.97-.48,3.94-1.46c.61-.61,1.02-1.24,1.24-1.91,.22-.67,.33-1.53,.33-2.58,0-1.96-.53-3.46-1.58-4.52-.8-.8-1.89-1.19-3.3-1.19Z" style="fill: #46525a;"/>
      <path d="M252.86,52.86c-1.5,0-2.76,.45-3.8,1.34-1.12,.97-1.67,2.29-1.67,3.97v6.69c0,1.67,.56,2.99,1.67,3.97,1.02,.89,2.28,1.34,3.8,1.34s2.76-.45,3.8-1.34c1.11-.97,1.67-2.29,1.67-3.97v-6.69c0-1.67-.56-2.99-1.67-3.97-1.02-.89-2.29-1.34-3.8-1.34Zm1.55,12.02c0,1.16-.52,1.74-1.55,1.74s-1.55-.58-1.55-1.74v-6.71c0-.59,.15-1.03,.45-1.33,.3-.29,.67-.44,1.1-.44s.8,.15,1.1,.45c.3,.3,.45,.74,.45,1.31v6.71Z" style="fill: #46525a;"/>
      <polygon points="211.35 59.11 211.35 54.44 212.82 54.44 212.82 53.13 208.41 53.13 208.41 54.44 209.88 54.44 209.88 59.11 211.35 59.11" style="fill: #46525a;"/>
      <path d="M217.7,56.12c0-.3,0-.56-.01-.77,0-.21-.03-.38-.06-.51-.07-.44-.25-.8-.54-1.08-.45-.45-1.01-.67-1.67-.67s-1.22,.22-1.67,.67c-.29,.29-.47,.65-.54,1.08-.04,.24-.07,.67-.07,1.29,0,.3,0,.56,.01,.77,0,.21,.03,.38,.05,.51,.07,.44,.25,.8,.54,1.08,.45,.45,1.01,.67,1.67,.67s1.22-.22,1.67-.67c.29-.29,.47-.65,.54-1.08,.04-.24,.07-.67,.07-1.29Zm-1.52,.95c-.03,.24-.09,.41-.16,.5-.15,.18-.34,.28-.6,.28-.27,0-.47-.09-.61-.28-.07-.09-.12-.26-.16-.5-.03-.24-.05-.56-.05-.95,0-.8,.07-1.28,.21-1.45,.14-.18,.34-.28,.6-.28s.45,.09,.59,.26c.08,.1,.13,.27,.17,.51,.03,.24,.05,.56,.05,.96s-.01,.71-.05,.95Z" style="fill: #46525a;"/>
      <path d="M222.27,53.73c-.38-.4-.89-.6-1.52-.6h-2.37v5.98h1.47v-2.13h.9c.63,0,1.14-.2,1.52-.6,.35-.36,.52-.81,.52-1.33s-.17-.96-.52-1.33Zm-1.14,1.76c-.12,.12-.27,.18-.45,.18h-.83v-1.23h.83c.19,0,.34,.06,.46,.19,.12,.13,.18,.27,.18,.42,0,.17-.06,.32-.19,.44Z" style="fill: #46525a;"/>
      <path d="M203.5,30.86s18.42-19.04,59.27-20.54V2.46s-41.95,4.48-59.27,28.39Z" style="fill: #46525a;"/>
      <path d="M203.5,91.89v7.85s41.95-4.48,59.27-28.39c0,0-18.42,19.04-59.27,20.54Z" style="fill: #46525a;"/>
      <rect x="208.49" y="72.66" width=".55" height="3.31" style="fill: #46525a;"/>
      <polygon points="211.72 72.66 211.21 72.66 211.21 74.87 210.1 72.66 209.57 72.66 209.57 75.97 210.08 75.97 210.08 73.81 211.17 75.97 211.72 75.97 211.72 72.66" style="fill: #46525a;"/>
      <polygon points="212.11 73.22 212.91 73.22 212.91 75.97 213.46 75.97 213.46 73.22 214.27 73.22 214.27 72.66 212.11 72.66 212.11 73.22" style="fill: #46525a;"/>
      <polygon points="215.17 74.51 216.54 74.51 216.54 73.95 215.17 73.95 215.17 73.22 216.64 73.22 216.64 72.66 214.62 72.66 214.62 75.97 216.69 75.97 216.69 75.41 215.17 75.41 215.17 74.51" style="fill: #46525a;"/>
      <path d="M218.95,74.79c-.08-.1-.17-.19-.29-.28,.23-.04,.41-.14,.53-.3s.19-.37,.19-.63c0-.2-.04-.38-.12-.53-.08-.15-.19-.25-.31-.31-.13-.06-.34-.09-.63-.09h-1.16v3.31h.55v-1.38h.11c.13,0,.22,.01,.28,.04,.06,.02,.11,.07,.16,.14,.05,.07,.15,.23,.29,.49l.4,.72h.65l-.33-.65c-.13-.26-.24-.44-.31-.54Zm-.84-.73h-.41v-.84h.43c.25,0,.39,0,.45,.02,.07,.02,.13,.07,.17,.13s.06,.15,.06,.25-.02,.2-.06,.26c-.04,.07-.1,.11-.17,.13-.07,.02-.23,.03-.48,.03Z" style="fill: #46525a;"/>
      <polygon points="221.5 75.97 222.06 75.97 222.06 72.66 221.55 72.66 221.55 74.87 220.43 72.66 219.9 72.66 219.9 75.97 220.41 75.97 220.41 73.81 221.5 75.97" style="fill: #46525a;"/>
      <path d="M222.94,75.97l.22-.75h1.09l.24,.75h.59l-1.09-3.31h-.58l-1.06,3.31h.58Zm.76-2.54l.38,1.23h-.74l.37-1.23Z" style="fill: #46525a;"/>
      <polygon points="226.25 75.97 226.25 73.22 227.06 73.22 227.06 72.66 224.9 72.66 224.9 73.22 225.71 73.22 225.71 75.97 226.25 75.97" style="fill: #46525a;"/>
      <rect x="227.4" y="72.66" width=".55" height="3.31" style="fill: #46525a;"/>
      <path d="M230.63,73.05c-.24-.3-.56-.45-.95-.45-.27,0-.5,.06-.68,.19-.19,.13-.34,.32-.46,.57-.12,.26-.18,.58-.18,.98,0,.54,.13,.97,.39,1.28,.23,.27,.54,.41,.93,.41s.7-.14,.93-.41c.26-.31,.39-.75,.39-1.3s-.12-.97-.37-1.27Zm-.41,2.13c-.14,.19-.32,.28-.54,.28s-.39-.1-.54-.29c-.14-.19-.22-.48-.22-.86s.07-.68,.21-.86c.14-.19,.32-.28,.55-.28s.4,.09,.54,.28c.14,.18,.21,.47,.21,.85s-.07,.68-.21,.87Z" style="fill: #46525a;"/>
      <polygon points="233.08 74.87 231.97 72.66 231.43 72.66 231.43 75.97 231.94 75.97 231.94 73.81 233.04 75.97 233.59 75.97 233.59 72.66 233.08 72.66 233.08 74.87" style="fill: #46525a;"/>
      <path d="M234.95,72.66l-1.06,3.31h.58l.22-.75h1.09l.24,.75h.6l-1.09-3.31h-.58Zm-.08,2l.37-1.23,.38,1.23h-.74Z" style="fill: #46525a;"/>
      <polygon points="236.92 72.69 236.92 75.97 238.83 75.97 238.83 75.41 237.47 75.41 237.47 72.69 236.92 72.69" style="fill: #46525a;"/>
      <path d="M210.02,79.69c-.11,.11-.23,.17-.38,.17-.2,0-.36-.09-.48-.26s-.19-.47-.19-.89,.06-.69,.19-.87c.13-.17,.29-.26,.49-.26,.14,0,.26,.05,.37,.14,.1,.1,.17,.23,.21,.41l.54-.16c-.07-.29-.18-.51-.32-.66-.2-.21-.46-.31-.76-.31-.37,0-.67,.14-.89,.42-.26,.32-.38,.76-.38,1.33,0,.54,.13,.96,.38,1.28,.22,.27,.51,.41,.86,.41,.28,0,.52-.09,.71-.26s.33-.44,.41-.81l-.53-.21c-.05,.24-.12,.42-.23,.53Z" style="fill: #46525a;"/>
      <path d="M212.59,77c-.27,0-.5,.06-.68,.19-.19,.13-.34,.32-.46,.57-.12,.26-.18,.58-.18,.98,0,.54,.13,.97,.39,1.28,.23,.27,.54,.41,.93,.41s.7-.14,.93-.41c.26-.31,.39-.75,.39-1.3s-.12-.97-.37-1.27c-.25-.3-.56-.45-.95-.45Zm.54,2.57c-.14,.19-.32,.28-.54,.28s-.39-.1-.54-.29c-.15-.19-.22-.48-.22-.86s.07-.68,.21-.86c.14-.19,.32-.28,.55-.28s.4,.09,.54,.28c.14,.18,.21,.47,.21,.85s-.07,.68-.21,.87Z" style="fill: #46525a;"/>
      <polygon points="216.13 79.27 215.02 77.06 214.48 77.06 214.48 80.37 215 80.37 215 78.21 216.09 80.37 216.64 80.37 216.64 77.06 216.13 77.06 216.13 79.27" style="fill: #46525a;"/>
      <polygon points="217.16 77.62 217.97 77.62 217.97 80.37 218.52 80.37 218.52 77.62 219.32 77.62 219.32 77.06 217.16 77.06 217.16 77.62" style="fill: #46525a;"/>
      <path d="M221.61,79.19c-.08-.1-.17-.19-.29-.28,.23-.04,.41-.14,.53-.3s.19-.37,.19-.63c0-.21-.04-.38-.12-.53-.08-.15-.19-.25-.31-.31-.13-.06-.34-.09-.63-.09h-1.16v3.31h.55v-1.38h.11c.13,0,.22,.01,.28,.04,.06,.02,.11,.07,.16,.14,.05,.07,.15,.23,.29,.49l.4,.72h.65l-.33-.65c-.13-.26-.24-.44-.31-.54Zm-.84-.73h-.41v-.84h.43c.25,0,.39,0,.45,.02,.07,.02,.13,.07,.17,.13,.04,.06,.06,.15,.06,.25s-.02,.2-.06,.26c-.04,.07-.1,.11-.17,.13-.07,.02-.23,.03-.48,.03Z" style="fill: #46525a;"/>
      <path d="M223.48,77.06l-1.06,3.31h.58l.22-.75h1.09l.24,.75h.59l-1.09-3.31h-.58Zm-.08,2l.37-1.23,.38,1.23h-.74Z" style="fill: #46525a;"/>
      <path d="M227.09,79.69c-.11,.11-.23,.17-.38,.17-.2,0-.36-.09-.48-.26-.12-.18-.19-.47-.19-.89s.06-.69,.19-.87c.13-.17,.29-.26,.49-.26,.14,0,.26,.05,.37,.14,.1,.1,.17,.23,.21,.41l.54-.16c-.07-.29-.18-.51-.32-.66-.2-.21-.46-.31-.76-.31-.37,0-.67,.14-.89,.42-.26,.32-.38,.76-.38,1.33,0,.54,.13,.96,.38,1.28,.22,.27,.51,.41,.86,.41,.28,0,.52-.09,.71-.26,.19-.17,.33-.44,.41-.81l-.53-.21c-.05,.24-.12,.42-.23,.53Z" style="fill: #46525a;"/>
      <polygon points="228.26 77.62 229.06 77.62 229.06 80.37 229.61 80.37 229.61 77.62 230.42 77.62 230.42 77.06 228.26 77.06 228.26 77.62" style="fill: #46525a;"/>
      <path d="M232.05,77c-.27,0-.5,.06-.69,.19s-.34,.32-.46,.57c-.12,.26-.18,.58-.18,.98,0,.54,.13,.97,.39,1.28,.23,.27,.54,.41,.93,.41s.7-.14,.93-.41c.26-.31,.39-.75,.39-1.3s-.12-.97-.37-1.27c-.24-.3-.56-.45-.95-.45Zm.54,2.57c-.14,.19-.32,.28-.54,.28s-.39-.1-.54-.29c-.14-.19-.22-.48-.22-.86s.07-.68,.21-.86c.14-.19,.32-.28,.55-.28s.4,.09,.54,.28c.14,.18,.21,.47,.21,.85s-.07,.68-.21,.87Z" style="fill: #46525a;"/>
      <path d="M235.74,79.19c-.08-.1-.17-.19-.29-.28,.23-.04,.41-.14,.53-.3,.12-.16,.19-.37,.19-.63,0-.21-.04-.38-.12-.53-.08-.15-.19-.25-.31-.31-.13-.06-.34-.09-.63-.09h-1.16v3.31h.55v-1.38h.11c.13,0,.22,.01,.28,.04,.06,.02,.11,.07,.16,.14,.05,.07,.15,.23,.29,.49l.4,.72h.65l-.33-.65c-.13-.26-.24-.44-.31-.54Zm-.84-.73h-.41v-.84h.43c.25,0,.39,0,.45,.02,.07,.02,.13,.07,.17,.13s.06,.15,.06,.25-.02,.2-.06,.26c-.04,.07-.1,.11-.17,.13-.07,.02-.23,.03-.47,.03Z" style="fill: #46525a;"/>
      <path d="M238.51,78.56c-.12-.09-.32-.17-.6-.25-.26-.07-.43-.14-.5-.2-.07-.06-.11-.14-.11-.23s.04-.17,.12-.23c.08-.06,.19-.09,.34-.09s.26,.04,.34,.11c.08,.07,.13,.2,.16,.37l.55-.03c-.01-.32-.11-.57-.28-.74-.18-.17-.43-.26-.75-.26-.21,0-.39,.04-.54,.11-.14,.07-.26,.18-.34,.33-.08,.14-.12,.31-.12,.49,0,.16,.03,.3,.1,.43,.06,.13,.15,.24,.26,.33,.11,.08,.28,.16,.51,.23,.26,.08,.43,.14,.49,.17,.07,.03,.12,.08,.15,.13,.03,.05,.05,.12,.05,.19,0,.13-.05,.24-.14,.32-.09,.09-.23,.13-.39,.13-.33,0-.53-.21-.59-.64l-.54,.06c.08,.76,.45,1.14,1.11,1.14,.38,0,.65-.1,.83-.29,.18-.2,.27-.44,.27-.73,0-.2-.03-.37-.1-.51-.06-.14-.16-.25-.28-.34Z" style="fill: #46525a;"/>
    </g>
  </g>
</svg>