<?xml version="1.0" encoding="utf-8"?>
<!-- Generator: Adobe Illustrator 26.0.3, SVG Export Plug-In . SVG Version: 6.00 Build 0)  -->
<svg version="1.1" id="Layer_1" xmlns="http://www.w3.org/2000/svg" xmlns:xlink="http://www.w3.org/1999/xlink" x="0px" y="0px"
	 viewBox="0 0 248.4 73.1" style="enable-background:new 0 0 248.4 73.1;" xml:space="preserve">
<style type="text/css">
	.st0{fill:#46525A;}
</style>
<g>
	<g>
		<path class="st0" d="M80.6,37.9c-0.5,0-1.5-0.2-2-0.4l0.3-1.3c0.4,0.1,1,0.2,1.5,0.2c0.7,0,1.1-0.1,1.1-0.5c0-0.6-0.3-0.5-0.8-0.5
			c-0.2,0-0.6,0-1,0L79.2,35l0.4-1.7c-3.5-0.2-5-2.2-5-4.8v-6.7c0-2.9,1.8-4.9,5.8-4.9c1.6,0,3,0.2,4.6,0.5l-0.5,3.1
			c-1.4-0.2-3-0.4-4.1-0.4c-1.6,0-2.2,0.8-2.2,2.2v5.5c0,1.4,0.7,2.2,2.2,2.2c1.2,0,2.7-0.1,4.1-0.4l0.5,3.1c-1.4,0.3-2.6,0.5-4,0.5
			l-0.2,0.9c1.8-0.2,2.4,0.3,2.4,1.6C83.3,37.1,82.7,37.9,80.6,37.9z"/>
		<path class="st0" d="M94,33.2l-0.2-0.7c-1.3,0.7-2.5,1-3.3,1c-2.2,0-3-1.6-3-3.6c0-2.4,1.1-3.3,3.5-3.3h2.5v-0.9
			c0-1.2-0.2-1.6-2.1-1.6c-1,0-2.1,0.1-3.2,0.3l-0.5-2.6c1.1-0.3,2.9-0.6,4.2-0.6c4.1,0,4.9,1.2,4.9,4.5v7.5H94z M93.4,29h-1.7
			c-0.7,0-1,0.2-1,0.8s0.3,0.9,0.9,0.9c0.7,0,1.2-0.2,1.8-0.4V29z"/>
		<path class="st0" d="M99.9,33.2V16.7l3.5-0.5v16.9H99.9z"/>
		<path class="st0" d="M106.7,33.2V21.5h3.5v11.7H106.7z"/>
		<path class="st0" d="M117.2,37.9c-0.5,0-1.5-0.2-2-0.4l0.3-1.3c0.4,0.1,1,0.2,1.5,0.2c0.7,0,1.1-0.1,1.1-0.5
			c0-0.6-0.3-0.5-0.8-0.5c-0.2,0-0.6,0-1,0l-0.5-0.4l0.4-1.7c-1.1-0.1-2.3-0.3-3.2-0.6l0.6-2.6c1,0.3,2.2,0.5,3.5,0.5
			c1,0,1.2-0.3,1.2-1c0-0.7,0-0.8-1.9-1.3c-2.8-0.7-3.1-1.5-3.1-3.6c0-2.5,1-3.5,4.5-3.5c0.9,0,2.5,0.1,3.6,0.4l-0.3,2.7
			c-1-0.2-2.3-0.3-3.2-0.3c-1,0-1.2,0.3-1.2,0.8c0,0.7,0.1,0.8,1.5,1.1c3.3,0.7,3.6,1.5,3.6,3.8c0,2.3-0.9,3.6-3.9,3.7l-0.2,0.9
			c1.8-0.2,2.4,0.3,2.4,1.6C119.9,37.1,119.2,37.9,117.2,37.9z"/>
		<path class="st0" d="M130.5,33.2l-0.2-0.7c-1.3,0.7-2.5,1-3.3,1c-2.2,0-3-1.6-3-3.6c0-2.4,1.1-3.3,3.5-3.3h2.5v-0.9
			c0-1.2-0.2-1.6-2.1-1.6c-1,0-2.1,0.1-3.2,0.3l-0.5-2.6c1.1-0.3,2.9-0.6,4.2-0.6c4.1,0,4.9,1.2,4.9,4.5v7.5H130.5z M129.8,29h-1.7
			c-0.7,0-1,0.2-1,0.8s0.3,0.9,0.9,0.9c0.7,0,1.2-0.2,1.8-0.4V29z"/>
		<path class="st0" d="M143.2,33.2v-7.7c0-0.5-0.2-0.8-0.8-0.8c-0.6,0-1.8,0.4-2.5,0.8v7.7h-3.5V21.5h2.6l0.4,0.9
			c1.4-0.7,3.3-1.1,4.7-1.1c2,0,2.7,1.5,2.7,3.7v8.2H143.2z"/>
		<path class="st0" d="M80.6,61.9c-0.5,0-1.5-0.2-2-0.4l0.3-1.3c0.4,0.1,1,0.2,1.5,0.2c0.7,0,1.1-0.1,1.1-0.5c0-0.6-0.3-0.5-0.8-0.5
			c-0.2,0-0.6,0-1,0L79.2,59l0.4-1.7c-3.5-0.2-5-2.2-5-4.8v-6.7c0-2.9,1.8-4.9,5.8-4.9c1.6,0,3,0.2,4.6,0.5l-0.5,3.1
			c-1.4-0.2-3-0.4-4.1-0.4c-1.6,0-2.2,0.8-2.2,2.2v5.5c0,1.4,0.7,2.2,2.2,2.2c1.2,0,2.7-0.1,4.1-0.4l0.5,3.1c-1.4,0.3-2.6,0.5-4,0.5
			l-0.2,0.9c1.8-0.2,2.4,0.3,2.4,1.6C83.3,61.1,82.7,61.9,80.6,61.9z"/>
		<path class="st0" d="M90.6,52.5v0.3c0,1.3,0.5,1.7,2.1,1.7c1.1,0,2.5-0.2,3.6-0.5l0.5,2.6c-1.1,0.4-2.8,0.7-4.4,0.7
			c-3.8,0-5.2-1.9-5.2-4.8v-2.7c0-2.5,1.1-4.7,5-4.7s4.7,2.3,4.7,4.8v2.4H90.6z M93.6,49.4c0-0.8-0.2-1.5-1.4-1.5s-1.6,0.7-1.6,1.5
			v0.5h3V49.4z"/>
		<path class="st0" d="M103.2,61.9c-0.5,0-1.5-0.2-2-0.4l0.3-1.3c0.4,0.1,1,0.2,1.5,0.2c0.7,0,1.1-0.1,1.1-0.5
			c0-0.6-0.3-0.5-0.8-0.5c-0.2,0-0.6,0-1,0l-0.5-0.4l0.4-1.7c-1.1-0.1-2.3-0.3-3.2-0.6l0.6-2.6c1,0.3,2.2,0.5,3.5,0.5
			c1,0,1.2-0.3,1.2-1c0-0.7,0-0.8-1.9-1.3c-2.8-0.7-3.1-1.5-3.1-3.6c0-2.5,1-3.5,4.5-3.5c0.9,0,2.5,0.1,3.6,0.4l-0.3,2.7
			c-1-0.2-2.3-0.3-3.2-0.3c-1,0-1.2,0.3-1.2,0.8c0,0.7,0.1,0.8,1.5,1.1c3.3,0.7,3.6,1.5,3.6,3.8c0,2.3-0.9,3.6-3.9,3.7l-0.2,0.9
			c1.8-0.2,2.4,0.3,2.4,1.6C105.9,61.1,105.2,61.9,103.2,61.9z"/>
		<path class="st0" d="M110.3,44v-3.7h3.5V44H110.3z M110.3,57.2V45.5h3.5v11.7H110.3z"/>
		<path class="st0" d="M121,57.4c-2.2,0-3.5-0.8-3.5-3v-6.1h-1.6v-2.8h1.6v-2.8l3.5-0.5v3.3h2.7l-0.2,2.8h-2.5v5.7
			c0,0.5,0.3,0.6,0.7,0.6c0.4,0,0.9,0,1.4-0.2l0.4,2.6C122.7,57.2,121.8,57.4,121,57.4z"/>
		<path class="st0" d="M125.9,57.2V40.7l3.5-0.5v16.9H125.9z"/>
		<path class="st0" d="M132.8,44v-3.7h3.5V44H132.8z M132.8,57.2V45.5h3.5v11.7H132.8z"/>
		<path class="st0" d="M139.6,57.2V40.7l3.5-0.5v16.9H139.6z"/>
		<path class="st0" d="M146.4,44v-3.7h3.5V44H146.4z M146.4,57.2V45.5h3.5v11.7H146.4z"/>
		<path class="st0" d="M152.5,49.1c0-2.4,1.3-3.8,4.8-3.8c0.8,0,1.4,0.1,2,0.2h3.6v1.6l-1.2,0.4c0.2,0.5,0.3,1,0.3,1.5v1.4
			c0,2.2-1.6,3.7-4.8,3.7h-0.4c-0.2,0.1-0.5,0.3-0.5,0.6c0,0.3,0.2,0.5,0.4,0.5c1.6,0.2,2,0.2,2.9,0.3c2,0.2,2.8,0.8,2.8,2.9
			c0,2.8-1.8,3.7-5.4,3.7c-1.2,0-3.1-0.2-4.7-0.6L153,59c1.4,0.3,2.8,0.5,3.8,0.5c1.8,0,2.5-0.1,2.5-0.8c0-0.5-0.2-0.6-0.9-0.6
			c-1.3-0.1-1.5-0.1-3-0.3c-1.6-0.2-2.5-0.5-2.5-2.1c0-0.9,0.4-1.6,1-2.1c-1-0.6-1.5-1.6-1.5-3V49.1z M161.3,41.4
			c-0.2,1.5-1.5,3-3.7,3s-3.5-1.5-3.7-3l1.6-0.8c0.3,1,0.9,1.8,2.1,1.8s1.8-0.8,2.1-1.8L161.3,41.4z M158.8,50.3v-1.1
			c0-0.8-0.4-1.2-1.6-1.2c-1.2,0-1.6,0.5-1.6,1.2v1.1c0,0.8,0.4,1.2,1.6,1.2C158.4,51.5,158.8,51.1,158.8,50.3z"/>
		<path class="st0" d="M165.2,44v-3.7h3.5V44H165.2z M165.2,57.2V45.5h3.5v11.7H165.2z"/>
	</g>
	<g>
		<path class="st0" d="M194.1,63.7h-2.6l-2-5.5l-0.2,6.9h-2.1l0.5-10.7h2.3l2.8,7.6l2.8-7.6h2.3l0.5,10.7h-2.1l-0.2-6.9L194.1,63.7z
			"/>
		<path class="st0" d="M200.6,56.1v-2.3h2v2.3H200.6z M200.6,65v-7.8h2V65H200.6z"/>
		<path class="st0" d="M205,65v-11l2-0.3V65H205z"/>
		<path class="st0" d="M209.3,65v-11l2-0.3V65H209.3z"/>
		<path class="st0" d="M216.8,63.6c0.8,0,1.5-0.1,2.4-0.4l0.3,1.5c-0.9,0.3-1.9,0.5-2.9,0.5c-2.4,0-3.3-1.1-3.3-3v-2.1
			c0-1.6,0.7-3,3.2-3c2.5,0,3.1,1.5,3.1,3.1v1.7h-4.3v0.4C215.3,63.2,215.6,63.6,216.8,63.6z M215.3,60.3h2.5v-0.4
			c0-0.7-0.2-1.2-1.2-1.2s-1.3,0.5-1.3,1.2V60.3z"/>
		<path class="st0" d="M225.7,64.9c-0.4,0.2-1.2,0.3-1.7,0.3c-1.4,0-2.1-0.7-2.1-2.1v-4.3h-1.2v-1.6h1.2v-1.9l2-0.3v2.2h2l-0.1,1.6
			h-1.9v4.1c0,0.4,0.2,0.7,0.7,0.7c0.3,0,0.6-0.1,1-0.2L225.7,64.9z"/>
		<path class="st0" d="M231.5,64.9c-0.4,0.2-1.2,0.3-1.7,0.3c-1.4,0-2.1-0.7-2.1-2.1v-4.3h-1.2v-1.6h1.2v-1.9l2-0.3v2.2h2l-0.1,1.6
			h-1.9v4.1c0,0.4,0.2,0.7,0.7,0.7c0.3,0,0.6-0.1,1-0.2L231.5,64.9z"/>
		<path class="st0" d="M236.3,63.6c0.8,0,1.5-0.1,2.4-0.4l0.3,1.5c-0.9,0.3-1.9,0.5-2.9,0.5c-2.4,0-3.3-1.1-3.3-3v-2.1
			c0-1.6,0.7-3,3.2-3s3.1,1.5,3.1,3.1v1.7h-4.3v0.4C234.8,63.2,235.1,63.6,236.3,63.6z M234.8,60.3h2.5v-0.4c0-0.7-0.2-1.2-1.2-1.2
			c-1,0-1.3,0.5-1.3,1.2V60.3z"/>
		<path class="st0" d="M245.7,65v-5.4c0-0.4-0.2-0.6-0.6-0.6c-0.5,0-1.3,0.3-2,0.7V65h-2v-7.8h1.5l0.2,0.7c1-0.5,2.2-0.8,3.1-0.8
			c1.3,0,1.8,0.9,1.8,2.3V65H245.7z"/>
	</g>
	<g>
		<path class="st0" d="M190.8,35V20.3c0-10.9,7.4-13.7,18.4-13.7c1.7,0,4,0.2,5.9,0.5l-0.6,7.1c-1.3-0.2-3.2-0.3-4.1-0.3
			c-8,0-11,1.4-11,6.4v2.9c2.2-0.7,4.1-0.9,6.6-0.9c6.7,0,10.1,2.9,10.1,10.1V35c0,6-2.3,11.6-12.7,11.6S190.8,41.3,190.8,35z
			 M207.5,35.4v-2.6c0-2.5-1.4-3-2.9-3c-2,0-3.7,0.4-5.2,1.1v4.6c0,2.8,0.9,3.7,4,3.7S207.5,38,207.5,35.4z"/>
		<path class="st0" d="M231.4,22.8c3.8,0,4.9-1.1,4.9-3.7v-2.5c0-2.5-1.1-3.1-4.9-3.1c-2.6,0-5.3,0.3-8.3,0.8l-0.9-6.8
			c3.4-0.7,6.4-1.1,10-1.1c10,0,12.7,3,12.7,9v2.8c0,3.5-1.2,6.2-4,8c3.4,1.5,4.7,3.6,4.7,7.4v3.1c0,5.9-2.8,9.7-13.7,9.7
			c-3.7,0-6.7-0.3-9.8-1.3l0.9-6.7c2.9,0.5,5.2,0.8,8.6,0.8c4.2,0,5.3-0.8,5.3-3.2v-2.8c0-2.2-1.4-3.2-4.4-3.2h-7.9v-7.4H231.4z"/>
	</g>
	<g>
		<g>
			<path class="st0" d="M49.6,25.3c0-10.3-8.4-18.8-18.8-18.8s-18.8,8.4-18.8,18.8c0,8.9,6.2,16.4,14.6,18.3c1.3,0.6,2.7,1,4.2,1
				c1.5,0,2.9-0.4,4.2-1C43.3,41.6,49.6,34.2,49.6,25.3z M47.7,24.8h-3.8c-0.2-6.3-2.6-11.7-6.1-14.9C43.5,12.5,47.5,18.2,47.7,24.8
				z M42,24.8h-5.6c-0.1-6.1-1-12.1-2.7-15.3C38.3,11.4,41.8,17.5,42,24.8z M30.8,8.9c1.2,0,3.6,5.6,3.7,15.9h-7.5
				C27.2,14.5,29.6,8.9,30.8,8.9z M27.9,9.5c-1.7,3.2-2.6,9.2-2.7,15.3h-5.6C19.9,17.5,23.3,11.4,27.9,9.5z M23.8,9.9
				c-3.5,3.2-5.9,8.6-6.1,14.9H14C14.1,18.2,18.1,12.5,23.8,9.9z M14,26.7h3.7c0.2,5.1,1.8,9.7,4.3,12.9
				C17.6,36.9,14.5,32.2,14,26.7z M27.2,41.7c-4.3-2.2-7.4-8-7.6-15h5.6c0.1,6,1,11.9,2.6,15.1C27.6,41.8,27.4,41.8,27.2,41.7z
				 M30.8,42.1c-0.3,0-0.5,0-0.8,0c-1.3-1.6-2.9-6.9-3-15.4h7.5c-0.1,8.5-1.7,13.8-3,15.4C31.3,42.1,31.1,42.1,30.8,42.1z
				 M34.4,41.7c-0.2,0-0.4,0.1-0.6,0.1c1.6-3.3,2.5-9.2,2.6-15.1H42C41.8,33.7,38.7,39.6,34.4,41.7z M39.6,39.6
				c2.5-3.2,4.1-7.8,4.3-12.9h3.7C47.2,32.2,44.1,36.9,39.6,39.6z"/>
		</g>
		<g>
			<path class="st0" d="M57.1,25.3c-2.1,0-3.8,1.7-3.8,3.8v9c-0.6-0.3-1.2-0.5-1.9-0.5h-1.3l-9.6,9.6c-2.1,2.1-2.1,5.2-2.1,5.4v6.6
				c-1,0-1.9,0.8-1.9,1.9v5.6h1.9v-5.6h12.2v5.6h1.9v-5.6c0-1-0.8-1.9-1.9-1.9v-0.9c0-0.1,0.1-1.5,1.6-3.1l6.6-6.6
				c2.1-2.1,2.1-4.3,2.1-4.4v-15C60.8,27,59.1,25.3,57.1,25.3z M58.9,44.1c0,0.1-0.1,1.5-1.6,3.1l-6.6,6.6c-2.1,2.1-2.1,4.3-2.1,4.4
				v0.9h-8.4v-6.6c0,0,0-2.4,1.6-4l9.1-9.1h0.5c1,0,1.9,0.8,1.9,1.9v0.5L47,48.1l1.3,1.3l6.8-6.8v-0.4v-0.9V29.1
				c0-1,0.8-1.9,1.9-1.9s1.9,0.8,1.9,1.9V44.1z"/>
		</g>
		<g>
			<path class="st0" d="M23.3,59.1v-6.6c0-0.1,0-3.2-2.1-5.4l-9.6-9.6h-1.3c-0.7,0-1.3,0.2-1.9,0.5v-9c0-2.1-1.7-3.8-3.8-3.8
				S0.8,27,0.8,29.1v15c0,0.1,0,2.3,2.1,4.4L9.5,55c1.5,1.5,1.6,3,1.6,3.1v0.9c-1,0-1.9,0.8-1.9,1.9v5.6h1.9v-5.6h12.2v5.6h1.9v-5.6
				C25.2,59.9,24.3,59.1,23.3,59.1z M21.4,59.1H13v-0.9c0-0.1,0-2.3-2.1-4.4l-6.6-6.6c-1.5-1.5-1.6-3-1.6-3.1v-15
				c0-1,0.8-1.9,1.9-1.9s1.9,0.8,1.9,1.9v12.2v1.3v0l6.8,6.8l1.3-1.3l-6.3-6.3v-0.5c0-1,0.8-1.9,1.9-1.9h0.5l9.1,9.1
				c1.6,1.6,1.6,4,1.6,4V59.1z"/>
		</g>
	</g>
</g>
</svg>
